<svg width="98" height="36" viewBox="0 0 98 36" fill="none" xmlns="http://www.w3.org/2000/svg">
<g clip-path="url(#clip0_629_28311)">
<path d="M10.2182 4.79582L5.66211 3.33789V35.5743H10.2182V4.79582Z" fill="#8D93C8"/>
<path d="M3.69485 7.72746L0 6.54492V35.5739H3.69485V7.72746Z" fill="#BBC4E4"/>
<path d="M34.2119 8.25079L12.0479 0V35.6382H34.2119V8.25079Z" fill="#1D2088"/>
<path d="M11.4312 20.9032H16.0892C16.0892 20.9032 16.2829 20.8384 16.3695 20.2499C16.4561 19.6559 16.8231 15.8653 17.083 15.8059C17.3429 15.7465 17.5773 18.0576 17.6844 20.4281C17.6844 20.4281 18.1176 30.8603 18.2654 30.9197C18.2654 30.9197 18.5864 31.7513 18.8056 29.7318C18.8056 29.7318 19.6668 11.6535 20.0338 11.2971C20.0338 11.2971 20.1408 10.9407 20.2937 12.1881C20.2937 12.1881 21.2671 25.5848 21.5474 26.1194C21.5474 26.1194 21.8481 27.2479 22.1284 25.763C22.1284 25.763 22.8419 18.0576 22.9693 17.7606C23.0967 17.4636 23.377 16.7509 23.7032 17.6418C23.7032 17.6418 24.2841 21.8482 24.437 22.7392C24.5848 23.6301 24.9772 23.9865 25.2372 22.5016C25.2372 22.5016 25.6245 18.6462 25.7977 18.468C25.7977 18.468 26.2513 17.7552 26.4042 18.5868C26.4042 18.5868 26.7304 21.67 26.9648 22.3234C27.1992 22.9767 27.398 22.9173 27.5662 22.264C27.5662 22.264 27.9331 19.6559 27.9994 19.7153C27.9994 19.7153 28.193 19.0673 28.5396 20.8438C28.5396 20.8438 28.8657 21.9076 29.1002 21.6754C29.1002 21.6754 29.3142 21.5566 29.4671 20.9626C29.4671 20.9626 30.675 21.0814 31.7299 21.0814H34.3647" stroke="white" stroke-width="0.8905" stroke-miterlimit="10"/>
<path d="M46.2901 30.6164L44.5727 35.5302H40.0879L48.6803 12.0684H52.421L60.8912 35.5302H56.2535L54.5054 30.6164H46.2952H46.2901ZM53.0683 26.2697L50.4539 18.71L47.7783 26.2697H53.0683Z" fill="#1D2088"/>
<path d="M98.2424 23.0622C98.2424 23.1486 98.2424 23.2782 98.2577 23.4564C98.2679 23.6346 98.273 23.7642 98.273 23.8506C98.273 24.8603 98.1864 25.7999 98.0131 26.6638C97.8398 27.5278 97.5748 28.3431 97.2232 29.1045C96.1784 31.3076 94.7565 33.0085 92.9575 34.2018C91.1585 35.4006 89.12 36 86.8521 36C85.1805 36 83.6312 35.6598 82.2144 34.9848C80.7925 34.3098 79.5185 33.3055 78.382 31.9718C77.4391 30.854 76.7206 29.5851 76.2211 28.1703C75.7268 26.7502 75.4771 25.2491 75.4771 23.6616C75.4771 22.0741 75.7777 20.4811 76.374 19.0124C76.9703 17.5491 77.8469 16.2099 79.0037 15.0112C80.0994 13.8611 81.3175 13.0079 82.6629 12.4463C84.0032 11.8902 85.4914 11.6094 87.1273 11.6094C89.5073 11.6094 91.5662 12.2249 93.3041 13.4615C95.0368 14.698 96.3772 16.5015 97.32 18.8774H92.0606C91.4235 18.0297 90.6693 17.3925 89.8029 16.9659C88.9365 16.5393 87.9631 16.3287 86.8929 16.3287C84.997 16.3287 83.3917 17.0523 82.0717 18.5048C80.7518 19.9574 80.0943 21.7177 80.0943 23.7912C80.0943 25.8647 80.762 27.6736 82.0921 29.1153C83.4273 30.5624 85.0633 31.2806 87.0101 31.2806C88.3555 31.2806 89.5837 30.8918 90.6845 30.1196C91.7854 29.3475 92.6008 28.3053 93.1257 26.9932H84.4262V23.0622H98.2475H98.2424Z" fill="#1D2088"/>
<path d="M74.3455 12.0801H60.3306V16.1785H65.2231V35.5149H69.504V23.7543V16.1785H74.3455V12.0801Z" fill="#1D2088"/>
</g>
<defs>
<clipPath id="clip0_629_28311">
<rect width="98" height="36" fill="white"/>
</clipPath>
</defs>
</svg>
