<svg width="32" height="32" viewBox="0 0 32 32" fill="none" xmlns="http://www.w3.org/2000/svg">
<path d="M26.9738 14.7715C26.9359 14.6112 26.8591 14.4628 26.75 14.3393C26.641 14.2159 26.5032 14.1213 26.3488 14.064L19.1475 11.3627L20.98 2.19649C21.0215 1.98352 20.9926 1.76282 20.8977 1.56772C20.8028 1.37261 20.6469 1.21367 20.4538 1.11489C20.2606 1.01611 20.0405 0.982843 19.8267 1.02011C19.613 1.05738 19.4172 1.16316 19.2688 1.32149L5.26879 16.3215C5.15508 16.4413 5.07283 16.5874 5.02937 16.7468C4.98591 16.9061 4.98261 17.0738 5.01975 17.2347C5.05689 17.3957 5.13332 17.5449 5.24222 17.6691C5.35111 17.7933 5.48908 17.8886 5.64379 17.9465L12.8475 20.6477L11.02 29.804C10.9785 30.017 11.0074 30.2377 11.1024 30.4328C11.1973 30.6279 11.3531 30.7868 11.5463 30.8856C11.7395 30.9844 11.9596 31.0176 12.1733 30.9804C12.3871 30.9431 12.5829 30.8373 12.7313 30.679L26.7313 15.679C26.8429 15.5592 26.9234 15.4137 26.9657 15.2555C27.008 15.0972 27.0108 14.931 26.9738 14.7715ZM13.6713 26.7502L14.98 20.2027C15.0269 19.9705 14.9898 19.7292 14.8753 19.5218C14.7608 19.3144 14.5765 19.1544 14.355 19.0702L7.75004 16.589L18.3275 5.25649L17.02 11.804C16.9732 12.0362 17.0103 12.2775 17.1248 12.4849C17.2392 12.6923 17.4236 12.8523 17.645 12.9365L24.245 15.4115L13.6713 26.7502Z" fill="#374151"/>
</svg>
