<svg width="28" height="72" viewBox="0 0 28 72" fill="none" xmlns="http://www.w3.org/2000/svg">
<g filter="url(#filter0_d_219_3881)">
<path d="M4 2H16C20.4183 2 24 5.58172 24 10V58C24 62.4183 20.4183 66 16 66H4V2Z" fill="white"/>
<mask id="mask0_219_3881" style="mask-type:luminance" maskUnits="userSpaceOnUse" x="4" y="2" width="20" height="64">
<path d="M4 2H16C20.4183 2 24 5.58172 24 10V58C24 62.4183 20.4183 66 16 66H4V2Z" fill="white"/>
</mask>
<g mask="url(#mask0_219_3881)">
<path d="M4 0H16C21.5228 0 26 4.47715 26 10H22C22 6.68629 19.3137 4 16 4H4V0ZM26 58C26 63.5228 21.5228 68 16 68H4V64H16C19.3137 64 22 61.3137 22 58H26ZM16 0C21.5228 0 26 4.47715 26 10V58C26 63.5228 21.5228 68 16 68V64C19.3137 64 22 61.3137 22 58V10C22 6.68629 19.3137 4 16 4V0Z" fill="#E5E7EB"/>
</g>
<path d="M18.8542 38.6465C18.9006 38.6929 18.9375 38.7481 18.9626 38.8088C18.9878 38.8695 19.0007 38.9345 19.0007 39.0002C19.0007 39.0659 18.9878 39.131 18.9626 39.1917C18.9375 39.2524 18.9006 39.3075 18.8542 39.354C18.8077 39.4004 18.7526 39.4373 18.6919 39.4624C18.6312 39.4876 18.5661 39.5005 18.5004 39.5005C18.4347 39.5005 18.3697 39.4876 18.309 39.4624C18.2483 39.4373 18.1931 39.4004 18.1467 39.354L13.1467 34.354C13.1002 34.3075 13.0633 34.2524 13.0382 34.1917C13.013 34.131 13 34.0659 13 34.0002C13 33.9345 13.013 33.8695 13.0382 33.8088C13.0633 33.7481 13.1002 33.6929 13.1467 33.6465L18.1467 28.6465C18.2405 28.5527 18.3678 28.5 18.5004 28.5C18.6331 28.5 18.7604 28.5527 18.8542 28.6465C18.948 28.7403 19.0007 28.8676 19.0007 29.0002C19.0007 29.1329 18.948 29.2602 18.8542 29.354L14.2073 34.0002L18.8542 38.6465ZM9.20726 34.0002L13.8542 29.354C13.948 29.2602 14.0007 29.1329 14.0007 29.0002C14.0007 28.8676 13.948 28.7403 13.8542 28.6465C13.7604 28.5527 13.6331 28.5 13.5004 28.5C13.3678 28.5 13.2405 28.5527 13.1467 28.6465L8.14665 33.6465C8.10016 33.6929 8.06328 33.7481 8.03812 33.8088C8.01296 33.8695 8 33.9345 8 34.0002C8 34.0659 8.01296 34.131 8.03812 34.1917C8.06328 34.2524 8.10016 34.3075 8.14665 34.354L13.1467 39.354C13.1931 39.4004 13.2483 39.4373 13.309 39.4624C13.3697 39.4876 13.4347 39.5005 13.5004 39.5005C13.5661 39.5005 13.6312 39.4876 13.6919 39.4624C13.7526 39.4373 13.8077 39.4004 13.8542 39.354C13.9006 39.3075 13.9375 39.2524 13.9626 39.1917C13.9878 39.131 14.0007 39.0659 14.0007 39.0002C14.0007 38.9345 13.9878 38.8695 13.9626 38.8088C13.9375 38.7481 13.9006 38.6929 13.8542 38.6465L9.20726 34.0002Z" fill="#374151"/>
</g>
<defs>
<filter id="filter0_d_219_3881" x="0" y="0" width="28" height="72" filterUnits="userSpaceOnUse" color-interpolation-filters="sRGB">
<feFlood flood-opacity="0" result="BackgroundImageFix"/>
<feColorMatrix in="SourceAlpha" type="matrix" values="0 0 0 0 0 0 0 0 0 0 0 0 0 0 0 0 0 0 127 0" result="hardAlpha"/>
<feOffset dy="2"/>
<feGaussianBlur stdDeviation="2"/>
<feComposite in2="hardAlpha" operator="out"/>
<feColorMatrix type="matrix" values="0 0 0 0 0 0 0 0 0 0 0 0 0 0 0 0 0 0 0.1 0"/>
<feBlend mode="normal" in2="BackgroundImageFix" result="effect1_dropShadow_219_3881"/>
<feBlend mode="normal" in="SourceGraphic" in2="effect1_dropShadow_219_3881" result="shape"/>
</filter>
</defs>
</svg>
