<svg width="22" height="68" viewBox="0 0 22 68" fill="none" xmlns="http://www.w3.org/2000/svg">
<path d="M0 2H12C16.4183 2 20 5.58172 20 10V58C20 62.4183 16.4183 66 12 66H0V2Z" fill="white"/>
<mask id="mask0_219_3889" style="mask-type:luminance" maskUnits="userSpaceOnUse" x="0" y="2" width="20" height="64">
<path d="M0 2H12C16.4183 2 20 5.58172 20 10V58C20 62.4183 16.4183 66 12 66H0V2Z" fill="white"/>
</mask>
<g mask="url(#mask0_219_3889)">
<path d="M0 0H12C17.5228 0 22 4.47715 22 10H18C18 6.68629 15.3137 4 12 4H0V0ZM22 58C22 63.5228 17.5228 68 12 68H0V64H12C15.3137 64 18 61.3137 18 58H22ZM12 0C17.5228 0 22 4.47715 22 10V58C22 63.5228 17.5228 68 12 68V64C15.3137 64 18 61.3137 18 58V10C18 6.68629 15.3137 4 12 4V0Z" fill="#E5E7EB"/>
</g>
<path d="M5.14554 38.6465C5.09914 38.6929 5.06224 38.7481 5.03714 38.8088C5.01194 38.8695 4.99902 38.9345 4.99902 39.0002C4.99902 39.0659 5.01194 39.131 5.03714 39.1917C5.06224 39.2524 5.09914 39.3075 5.14554 39.354C5.19204 39.4004 5.24714 39.4373 5.30784 39.4624C5.36854 39.4876 5.43364 39.5005 5.49934 39.5005C5.56504 39.5005 5.63004 39.4876 5.69074 39.4624C5.75144 39.4373 5.80664 39.4004 5.85304 39.354L10.853 34.354C10.8995 34.3075 10.9364 34.2524 10.9615 34.1917C10.9867 34.131 10.9997 34.0659 10.9997 34.0002C10.9997 33.9345 10.9867 33.8695 10.9615 33.8088C10.9364 33.7481 10.8995 33.6929 10.853 33.6465L5.85304 28.6465C5.75924 28.5527 5.63194 28.5 5.49934 28.5C5.36664 28.5 5.23934 28.5527 5.14554 28.6465C5.05174 28.7403 4.99902 28.8676 4.99902 29.0002C4.99902 29.1329 5.05174 29.2602 5.14554 29.354L9.79244 34.0002L5.14554 38.6465ZM14.7924 34.0002L10.1455 29.354C10.0517 29.2602 9.99904 29.1329 9.99904 29.0002C9.99904 28.8676 10.0517 28.7403 10.1455 28.6465C10.2393 28.5527 10.3666 28.5 10.4993 28.5C10.6319 28.5 10.7592 28.5527 10.853 28.6465L15.853 33.6465C15.8995 33.6929 15.9364 33.7481 15.9615 33.8088C15.9867 33.8695 15.9997 33.9345 15.9997 34.0002C15.9997 34.0659 15.9867 34.131 15.9615 34.1917C15.9364 34.2524 15.8995 34.3075 15.853 34.354L10.853 39.354C10.8066 39.4004 10.7514 39.4373 10.6907 39.4624C10.63 39.4876 10.565 39.5005 10.4993 39.5005C10.4336 39.5005 10.3685 39.4876 10.3078 39.4624C10.2471 39.4373 10.192 39.4004 10.1455 39.354C10.0991 39.3075 10.0622 39.2524 10.0371 39.1917C10.0119 39.131 9.99904 39.0659 9.99904 39.0002C9.99904 38.9345 10.0119 38.8695 10.0371 38.8088C10.0622 38.7481 10.0991 38.6929 10.1455 38.6465L14.7924 34.0002Z" fill="#374151"/>
</svg>
