<svg width="48" height="48" viewBox="0 0 48 48" fill="none" xmlns="http://www.w3.org/2000/svg">
<path d="M42.8332 35.5912C41.1998 38.3799 38.9782 40.7789 36.3231 42.6214C33.668 44.4638 30.6432 45.7053 27.4593 46.2595C24.2754 46.8136 21.009 46.667 17.8875 45.83C14.766 44.9929 11.8646 43.4855 9.38511 41.4126L13.6636 36.2949C15.3992 37.7459 17.4302 38.8011 19.6153 39.387C21.8003 39.9729 24.0868 40.0755 26.3155 39.6877C28.5442 39.2998 30.6616 38.4307 32.5202 37.141C34.3788 35.8513 35.9339 34.1719 37.0772 32.2199L42.8332 35.5912Z" fill="#E0E7FF"/>
<path d="M39.3694 8.63073C41.7688 11.0301 43.5872 13.9468 44.6854 17.1574C45.7835 20.3681 46.1323 23.7874 45.705 27.1537C45.2776 30.5199 44.0856 33.7437 42.22 36.5781C40.3545 39.4124 37.8649 41.7823 34.9422 43.506L31.5535 37.7603C33.5995 36.5536 35.3421 34.8948 36.648 32.9107C37.9539 30.9266 38.7884 28.67 39.0875 26.3136C39.3866 23.9572 39.1425 21.5637 38.3738 19.3162C37.6051 17.0688 36.3322 15.0271 34.6526 13.3475L39.3694 8.63073Z" fill="#FFE4E6"/>
<path d="M11.1436 42.7404C8.41957 40.8881 6.14117 38.4537 4.47307 35.6131C2.80497 32.7726 1.78884 29.5969 1.49815 26.3156C1.20746 23.0344 1.64947 19.7295 2.79221 16.6399C3.93496 13.5504 5.7499 10.7533 8.10583 8.45095C10.4618 6.1486 13.2998 4.39847 16.4148 3.32708C19.5299 2.25569 22.844 1.88982 26.1177 2.2559C29.3915 2.62198 32.5429 3.71087 35.3444 5.44386C38.1458 7.17685 40.5272 9.51064 42.3164 12.2765L36.7155 15.8996C35.463 13.9635 33.7961 12.3298 31.8351 11.1167C29.8741 9.90365 27.668 9.14142 25.3764 8.88516C23.0848 8.62891 20.7649 8.88502 18.5844 9.63499C16.4039 10.385 14.4172 11.6101 12.7681 13.2217C11.1189 14.8334 9.84848 16.7913 9.04856 18.954C8.24864 21.1167 7.93923 23.4301 8.14272 25.727C8.3462 28.0239 9.05749 30.2468 10.2252 32.2352C11.3928 34.2236 12.9877 35.9277 14.8945 37.2243L11.1436 42.7404Z" fill="#FBBF24"/>
<path d="M29.8097 23.3486C29.7896 23.2637 29.7489 23.1851 29.6912 23.1198C29.6335 23.0544 29.5605 23.0044 29.4788 22.974L25.6663 21.5439L26.6365 16.6912C26.6585 16.5785 26.6432 16.4616 26.5929 16.3583C26.5426 16.255 26.4602 16.1709 26.3579 16.1186C26.2556 16.0663 26.1391 16.0487 26.0259 16.0684C25.9128 16.0881 25.8091 16.1441 25.7305 16.228L18.3188 24.1691C18.2586 24.2326 18.215 24.3099 18.192 24.3943C18.169 24.4787 18.1673 24.5674 18.1869 24.6526C18.2066 24.7378 18.2471 24.8168 18.3047 24.8826C18.3624 24.9484 18.4354 24.9988 18.5173 25.0294L22.3311 26.4595L21.3636 31.3069C21.3416 31.4197 21.3569 31.5365 21.4071 31.6398C21.4574 31.7431 21.5399 31.8273 21.6422 31.8796C21.7445 31.9318 21.861 31.9495 21.9741 31.9297C22.0873 31.91 22.191 31.854 22.2695 31.7702L29.6813 23.829C29.7404 23.7656 29.783 23.6886 29.8054 23.6048C29.8278 23.521 29.8292 23.433 29.8097 23.3486ZM22.7672 29.6902L23.46 26.2239C23.4848 26.101 23.4652 25.9732 23.4046 25.8634C23.344 25.7536 23.2464 25.6689 23.1291 25.6244L19.6324 24.3108L25.2322 18.3112L24.54 21.7775C24.5152 21.9005 24.5349 22.0282 24.5955 22.138C24.6561 22.2478 24.7537 22.3325 24.8709 22.3771L28.365 23.6874L22.7672 29.6902Z" fill="#FBBF24"/>
</svg>
