<svg width="29" height="30" viewBox="0 0 29 30" fill="none" xmlns="http://www.w3.org/2000/svg">
<g id="icon">
<path id="Ellipse 1708 (Stroke)" fill-rule="evenodd" clip-rule="evenodd" d="M28.7133 17.8786L25.4301 17.229C25.5761 16.4912 25.6532 15.7259 25.6532 14.9393C25.6532 14.1527 25.5761 13.3874 25.4301 12.6495L28.7133 12C28.9014 12.9506 29 13.9334 29 14.9393C29 15.9451 28.9014 16.9279 28.7133 17.8786ZM11 29.7133L11.6495 26.4301C12.3874 26.5761 13.1527 26.6532 13.9393 26.6532C14.7259 26.6532 15.4912 26.5761 16.229 26.4301L16.8786 29.7133C15.9279 29.9014 14.9451 30 13.9393 30C12.9334 30 11.9506 29.9014 11 29.7133ZM22.3073 27.4633L20.4453 24.6821C21.7242 23.826 22.826 22.7242 23.6821 21.4453L26.4633 23.3073C25.3637 24.9496 23.9496 26.3637 22.3073 27.4633Z" fill="#374151"/>
<path id="Vector (Stroke)" fill-rule="evenodd" clip-rule="evenodd" d="M25.3304 6.92892L18.4015 9.33044L17.6374 7.12579L22.3617 5.48838L20.7243 0.764123L22.9289 2.01586e-06L25.3304 6.92892Z" fill="#374151"/>
<path id="Subtract" d="M24 4.23111L22.3627 5.86844C20.2605 4.25656 17.6305 3.29861 14.7768 3.29861C7.88529 3.29861 2.29861 8.88529 2.29861 15.7768C2.29861 18.6305 3.25656 21.2605 4.86844 23.3627L3.23111 25C1.20909 22.4721 0 19.2657 0 15.7768C0 7.6158 6.6158 1 14.7768 1C18.2657 1 21.4721 2.20909 24 4.23111Z" fill="#374151"/>
<path id="Union" d="M21.6595 6.57187L24 4.23141C23.684 3.97864 23.3574 3.73856 23.021 3.51197C20.666 1.9258 17.8294 1 14.7765 1C6.61568 1 0 7.61568 0 15.7765C0 19.019 1.04441 22.0176 2.81516 24.4542C2.94976 24.6395 3.08855 24.8214 3.23141 25L5.57187 22.6595C5.434 22.4755 5.30152 22.2871 5.17467 22.0947C5.13625 22.0365 5.09835 21.9778 5.06097 21.9188C3.93536 20.1421 3.28367 18.0354 3.28367 15.7765C3.28367 9.4292 8.4292 4.28367 14.7765 4.28367C17.1104 4.28367 19.2819 4.97936 21.0947 6.17467C21.2871 6.30152 21.4755 6.434 21.6595 6.57187Z" fill="#374151"/>
<path id="Subtract_2" d="M23 3.31011C20.6816 1.84718 17.9315 1 14.9823 1C6.7078 1 0 7.66888 0 15.8954C0 20.8821 2.46481 25.2965 6.24928 28L8.11223 25.2541C5.21277 23.1467 3.3294 19.7397 3.3294 15.8954C3.3294 9.49699 8.54657 4.31008 14.9823 4.31008C17.2417 4.31008 19.351 4.94941 21.137 6.05603L23 3.31011Z" fill="#374151"/>
<rect id="Rectangle 5015" x="12.4453" y="15.8757" width="6" height="3" fill="#374151"/>
<rect id="Rectangle 5016" x="12.4453" y="10.3377" width="3" height="6" fill="#374151"/>
</g>
</svg>
