<svg width="29" height="29" viewBox="0 0 29 29" fill="none" xmlns="http://www.w3.org/2000/svg">
<g id="icon">
<path id="Union" fill-rule="evenodd" clip-rule="evenodd" d="M21 12C21 16.9706 16.9706 21 12 21C7.02944 21 3 16.9706 3 12C3 7.02944 7.02944 3 12 3C16.9706 3 21 7.02944 21 12ZM19.3585 21.4798C17.3264 23.0594 14.7731 24 12 24C5.37258 24 0 18.6274 0 12C0 5.37258 5.37258 0 12 0C18.6274 0 24 5.37258 24 12C24 14.7731 23.0594 17.3264 21.4798 19.3585L28.8092 26.6879L26.6879 28.8092L19.3585 21.4798Z" fill="#374151"/>
<path id="Vector 566" d="M7.36292 11.752L10.3629 14.752L16.3629 8.752" stroke="#374151" stroke-width="3"/>
</g>
</svg>
