<svg width="115" height="94" viewBox="0 0 115 94" fill="none" xmlns="http://www.w3.org/2000/svg">
<g opacity="0.88" filter="url(#filter0_d_588_20201)">
<mask id="path-1-inside-1_588_20201" fill="white">
<path fill-rule="evenodd" clip-rule="evenodd" d="M82.9236 75.4212C94.128 75.16 103.12 67.0841 103.12 57.1599C103.12 50.4709 99.0347 44.6215 92.9407 41.4387C91.9726 30.0907 82.3318 21.1784 70.5816 21.1784C68.8662 21.1784 67.1958 21.3683 65.5907 21.728C61.1669 16.6464 54.6073 13.4277 47.2859 13.4277C34.3753 13.4277 23.8336 23.4367 23.1947 36.0203C15.9899 39.6185 11.1191 46.4972 11.1191 54.3916C11.1191 66.0093 21.6677 75.4273 34.6801 75.4273C34.7213 75.4273 34.7624 75.4272 34.8035 75.427H82.1747C82.2376 75.4275 82.3005 75.4277 82.3635 75.4277C82.4265 75.4277 82.4895 75.4275 82.5523 75.427H82.9236V75.4212Z"/>
</mask>
<path fill-rule="evenodd" clip-rule="evenodd" d="M82.9236 75.4212C94.128 75.16 103.12 67.0841 103.12 57.1599C103.12 50.4709 99.0347 44.6215 92.9407 41.4387C91.9726 30.0907 82.3318 21.1784 70.5816 21.1784C68.8662 21.1784 67.1958 21.3683 65.5907 21.728C61.1669 16.6464 54.6073 13.4277 47.2859 13.4277C34.3753 13.4277 23.8336 23.4367 23.1947 36.0203C15.9899 39.6185 11.1191 46.4972 11.1191 54.3916C11.1191 66.0093 21.6677 75.4273 34.6801 75.4273C34.7213 75.4273 34.7624 75.4272 34.8035 75.427H82.1747C82.2376 75.4275 82.3005 75.4277 82.3635 75.4277C82.4265 75.4277 82.4895 75.4275 82.5523 75.427H82.9236V75.4212Z" fill="url(#paint0_linear_588_20201)"/>
<path d="M82.9236 75.4212L82.9143 75.0213L82.5236 75.0304V75.4212H82.9236ZM92.9407 41.4387L92.5421 41.4727L92.5608 41.6916L92.7555 41.7933L92.9407 41.4387ZM65.5907 21.728L65.2891 21.9907L65.4456 22.1705L65.6782 22.1184L65.5907 21.728ZM23.1947 36.0203L23.3734 36.3782L23.5823 36.2738L23.5941 36.0406L23.1947 36.0203ZM34.8035 75.427V75.027L34.8017 75.027L34.8035 75.427ZM82.1747 75.427L82.1778 75.027H82.1747V75.427ZM82.5523 75.427V75.027L82.5492 75.027L82.5523 75.427ZM82.9236 75.427V75.827H83.3236V75.427H82.9236ZM82.9329 75.8211C94.3061 75.5559 103.52 67.3468 103.52 57.1599H102.72C102.72 66.8215 93.9498 74.764 82.9143 75.0213L82.9329 75.8211ZM103.52 57.1599C103.52 50.2981 99.3294 44.3241 93.1259 41.0842L92.7555 41.7933C98.74 44.9189 102.72 50.6437 102.72 57.1599H103.52ZM93.3392 41.4047C92.3532 29.8471 82.5369 20.7784 70.5816 20.7784V21.5784C82.1267 21.5784 91.5919 30.3343 92.5421 41.4727L93.3392 41.4047ZM70.5816 20.7784C68.8366 20.7784 67.1369 20.9716 65.5033 21.3377L65.6782 22.1184C67.2547 21.765 68.8958 21.5784 70.5816 21.5784V20.7784ZM65.8924 21.4654C61.3951 16.2994 54.7268 13.0277 47.2859 13.0277V13.8277C54.4878 13.8277 60.9386 16.9934 65.2891 21.9907L65.8924 21.4654ZM47.2859 13.0277C34.1658 13.0277 23.4451 23.2001 22.7952 36L23.5941 36.0406C24.2221 23.6733 34.5847 13.8277 47.2859 13.8277V13.0277ZM23.0159 35.6625C15.6971 39.3176 10.7191 46.323 10.7191 54.3916H11.5191C11.5191 46.6715 16.2827 39.9194 23.3734 36.3782L23.0159 35.6625ZM10.7191 54.3916C10.7191 66.2716 21.4907 75.8273 34.6801 75.8273V75.0273C21.8448 75.0273 11.5191 65.7469 11.5191 54.3916H10.7191ZM34.6801 75.8273C34.7219 75.8273 34.7636 75.8272 34.8053 75.827L34.8017 75.027C34.7612 75.0272 34.7206 75.0273 34.6801 75.0273V75.8273ZM82.1747 75.027H34.8035V75.827H82.1747V75.027ZM82.1716 75.827C82.2355 75.8275 82.2995 75.8277 82.3635 75.8277V75.0277C82.3016 75.0277 82.2397 75.0275 82.1778 75.027L82.1716 75.827ZM82.3635 75.8277C82.4276 75.8277 82.4915 75.8275 82.5555 75.827L82.5492 75.027C82.4874 75.0275 82.4255 75.0277 82.3635 75.0277V75.8277ZM82.9236 75.027H82.5523V75.827H82.9236V75.027ZM82.5236 75.4212V75.427H83.3236V75.4212H82.5236Z" fill="#4ADE80" mask="url(#path-1-inside-1_588_20201)"/>
</g>
<g filter="url(#filter1_i_588_20201)">
<path d="M36.7213 57.1655C35.2242 56.3314 34.0535 55.1817 33.2093 53.7163C32.365 52.251 31.9373 50.594 31.9373 48.7567C31.9373 46.9194 32.365 45.2737 33.2093 43.7971C34.0535 42.3317 35.2354 41.182 36.7213 40.3479C38.2184 39.5137 39.8957 39.0967 41.7643 39.0967C43.4077 39.0967 44.8711 39.401 46.1769 39.9984C47.4826 40.5958 48.5295 41.43 49.34 42.4782C50.1504 43.5265 50.6795 44.7101 50.9384 46.0176H46.796C46.5708 45.1159 46.008 44.3606 45.1187 43.7632C44.2295 43.1658 43.1376 42.8615 41.8656 42.8615C40.7737 42.8615 39.7719 43.1095 38.8938 43.6167C38.0046 44.1239 37.3179 44.8228 36.8114 45.7133C36.3048 46.6038 36.0572 47.6182 36.0572 48.7454C36.0572 49.8726 36.3048 50.8645 36.8114 51.7663C37.3179 52.668 38.0046 53.3782 38.8938 53.8741C39.7831 54.3814 40.7737 54.6293 41.8656 54.6293C42.7098 54.6293 43.4978 54.4603 44.2407 54.1334C44.9837 53.8065 45.6028 53.3782 46.0868 52.8484C46.5708 52.3186 46.8748 51.7775 46.9761 51.2252H51.1185C50.9272 52.4764 50.4094 53.6487 49.5651 54.7421C48.7209 55.8354 47.6177 56.7259 46.2669 57.3909C44.9049 58.056 43.4077 58.3941 41.7643 58.3941C39.8957 58.3941 38.2184 57.9771 36.7213 57.143V57.1655Z" fill="white"/>
<path d="M57.2829 57.1655C55.7746 56.3314 54.5926 55.1817 53.7371 53.7163C52.8816 52.251 52.4539 50.594 52.4539 48.7567C52.4539 46.9194 52.8816 45.2737 53.7371 43.7971C54.5926 42.3317 55.7746 41.182 57.2829 40.3479C58.7913 39.5137 60.4911 39.0967 62.3709 39.0967C64.2508 39.0967 65.9393 39.5137 67.4589 40.3479C68.9673 41.182 70.1492 42.3317 71.0047 43.7971C71.8603 45.2624 72.288 46.9194 72.288 48.7567C72.288 50.594 71.8603 52.2397 71.0047 53.7163C70.1492 55.1817 68.9673 56.3314 67.4589 57.1655C65.9505 57.9996 64.2508 58.4167 62.3709 58.4167C60.4911 58.4167 58.8026 57.9996 57.2829 57.1655ZM65.3427 53.953C66.2319 53.4458 66.9186 52.7357 67.4251 51.8226C67.9317 50.9096 68.1793 49.8951 68.1793 48.768C68.1793 47.6408 67.9317 46.6038 67.4251 45.702C66.9186 44.8003 66.2207 44.0901 65.3427 43.5829C64.4647 43.0757 63.4628 42.8164 62.3709 42.8164C61.279 42.8164 60.2772 43.0757 59.3992 43.5829C58.5099 44.0901 57.8233 44.8003 57.3167 45.702C56.8102 46.6038 56.5625 47.6295 56.5625 48.768C56.5625 49.9064 56.8102 50.9209 57.3167 51.8226C57.8233 52.7357 58.5099 53.4458 59.3992 53.953C60.2885 54.4603 61.279 54.7195 62.3709 54.7195C63.4628 54.7195 64.4647 54.4603 65.3427 53.953Z" fill="white"/>
<path d="M80.5657 51.937C81.1061 52.2076 81.5226 52.5908 81.8152 53.0642C82.1079 53.5376 82.243 54.09 82.243 54.6986C82.243 55.0593 82.1754 55.4201 82.0404 55.7582C81.9053 56.0964 81.6689 56.4909 81.3424 56.9192C81.016 57.3588 80.5545 57.8773 79.9579 58.486L78.5058 59.9852H82.4343V61.8901H75.2189V60.6051L78.5283 57.201C79.1024 56.6149 79.4851 56.1302 79.699 55.7582C79.9129 55.3862 80.0254 55.0368 80.0254 54.7212C80.0254 54.3379 79.9129 54.0336 79.6877 53.8082C79.4626 53.594 79.1136 53.4813 78.6409 53.4813C78.2019 53.4813 77.8529 53.6278 77.6053 53.9322C77.3576 54.2365 77.2338 54.5859 77.2338 55.003H75.0162C75.0162 54.3492 75.1738 53.7631 75.4778 53.2333C75.7817 52.7035 76.2207 52.2865 76.761 51.9821C77.3126 51.6778 77.9317 51.5312 78.6409 51.5312C79.3838 51.5312 80.0254 51.6665 80.5657 51.937Z" fill="white"/>
</g>
<defs>
<filter id="filter0_d_588_20201" x="0.119141" y="3.42773" width="114" height="84" filterUnits="userSpaceOnUse" color-interpolation-filters="sRGB">
<feFlood flood-opacity="0" result="BackgroundImageFix"/>
<feColorMatrix in="SourceAlpha" type="matrix" values="0 0 0 0 0 0 0 0 0 0 0 0 0 0 0 0 0 0 127 0" result="hardAlpha"/>
<feMorphology radius="8" operator="dilate" in="SourceAlpha" result="effect1_dropShadow_588_20201"/>
<feOffset dy="1"/>
<feGaussianBlur stdDeviation="1.5"/>
<feColorMatrix type="matrix" values="0 0 0 0 0.219608 0 0 0 0 0.741176 0 0 0 0 0.972549 0 0 0 0.5 0"/>
<feBlend mode="normal" in2="BackgroundImageFix" result="effect1_dropShadow_588_20201"/>
<feBlend mode="normal" in="SourceGraphic" in2="effect1_dropShadow_588_20201" result="shape"/>
</filter>
<filter id="filter1_i_588_20201" x="31.9373" y="39.0967" width="50.4971" height="23.993" filterUnits="userSpaceOnUse" color-interpolation-filters="sRGB">
<feFlood flood-opacity="0" result="BackgroundImageFix"/>
<feBlend mode="normal" in="SourceGraphic" in2="BackgroundImageFix" result="shape"/>
<feColorMatrix in="SourceAlpha" type="matrix" values="0 0 0 0 0 0 0 0 0 0 0 0 0 0 0 0 0 0 127 0" result="hardAlpha"/>
<feOffset dy="1.2"/>
<feGaussianBlur stdDeviation="1"/>
<feComposite in2="hardAlpha" operator="arithmetic" k2="-1" k3="1"/>
<feColorMatrix type="matrix" values="0 0 0 0 0.176471 0 0 0 0 0.831373 0 0 0 0 0.74902 0 0 0 0.3 0"/>
<feBlend mode="normal" in2="shape" result="effect1_innerShadow_588_20201"/>
</filter>
<linearGradient id="paint0_linear_588_20201" x1="57.1193" y1="13.4277" x2="57.1193" y2="75.4277" gradientUnits="userSpaceOnUse">
<stop stop-color="#A1EEBD"/>
<stop offset="0.3" stop-color="#4ADE80"/>
<stop offset="0.7" stop-color="#2DD4BF"/>
<stop offset="1" stop-color="#26CAE7"/>
</linearGradient>
</defs>
</svg>
