<svg width="32" height="44" viewBox="0 0 32 44" fill="none" xmlns="http://www.w3.org/2000/svg">
<path d="M16 39.5625L15.2297 40.2001L16 41.1308L16.7703 40.2001L16 39.5625ZM16 39.5625C15.2297 40.2001 15.2296 40.2 15.2294 40.1998L15.2288 40.1992L15.2269 40.1968L15.2198 40.1882L15.1927 40.1553C15.1691 40.1265 15.1343 40.0841 15.0891 40.0287C14.9986 39.9179 14.8666 39.7552 14.6985 39.5459C14.3625 39.1275 13.8826 38.5227 13.3045 37.7745C12.149 36.2788 10.5985 34.2061 9.0209 31.9007C7.44517 29.5979 5.83204 27.0478 4.55808 24.5993C3.29668 22.1749 2.31598 19.7542 2.0931 17.7347L3.08706 17.625L2.0931 17.7347C1.23191 9.93161 6.42899 2 16 2C25.5711 2 30.7681 9.93162 29.9069 17.7347C29.684 19.7542 28.7033 22.1749 27.4419 24.5993C26.168 27.0478 24.5548 29.5979 22.9791 31.9007C21.4015 34.2061 19.851 36.2788 18.6955 37.7745C18.1174 38.5227 17.6375 39.1275 17.3015 39.5459C17.1334 39.7552 17.0014 39.9179 16.9109 40.0287C16.8657 40.0841 16.8309 40.1265 16.8073 40.1553L16.7802 40.1882L16.7731 40.1968L16.7711 40.1992L16.7706 40.1998C16.7704 40.2 16.7703 40.2001 16 39.5625Z" fill="#EF4444" stroke="#F9FAFB" stroke-width="2"/>
<g filter="url(#filter0_i_744_11883)">
<circle cx="16" cy="15.1875" r="7.3125" fill="white"/>
</g>
<defs>
<filter id="filter0_i_744_11883" x="8.6875" y="7.875" width="14.625" height="15.225" filterUnits="userSpaceOnUse" color-interpolation-filters="sRGB">
<feFlood flood-opacity="0" result="BackgroundImageFix"/>
<feBlend mode="normal" in="SourceGraphic" in2="BackgroundImageFix" result="shape"/>
<feColorMatrix in="SourceAlpha" type="matrix" values="0 0 0 0 0 0 0 0 0 0 0 0 0 0 0 0 0 0 127 0" result="hardAlpha"/>
<feOffset dy="1.4"/>
<feGaussianBlur stdDeviation="0.3"/>
<feComposite in2="hardAlpha" operator="arithmetic" k2="-1" k3="1"/>
<feColorMatrix type="matrix" values="0 0 0 0 0.866667 0 0 0 0 0.241944 0 0 0 0 0.241944 0 0 0 0.24 0"/>
<feBlend mode="normal" in2="shape" result="effect1_innerShadow_744_11883"/>
</filter>
</defs>
</svg>
