<svg width="28" height="28" viewBox="0 0 28 28" fill="none" xmlns="http://www.w3.org/2000/svg">
<g id="Icon/System/User">
<path id="Vector" fill-rule="evenodd" clip-rule="evenodd" d="M2.62514 13.9999C2.62514 7.71771 7.71783 2.625 14 2.625C20.2821 2.625 25.3749 7.71771 25.3749 13.9999C25.3749 20.2819 20.2821 25.3747 14 25.3747C7.71783 25.3747 2.62514 20.2819 2.62514 13.9999ZM14 4.25664C8.61897 4.25664 4.25677 8.61884 4.25677 13.9999C4.25677 16.5282 5.21984 18.8317 6.79915 20.5633C8.31653 18.1929 10.9743 16.6193 14.0006 16.6193C17.0266 16.6193 19.684 18.1925 21.2016 20.5624C22.7804 18.831 23.7432 16.5278 23.7432 13.9999C23.7432 8.61884 19.3809 4.25664 14 4.25664ZM19.9803 21.6924C18.7817 19.6327 16.552 18.2509 14.0006 18.2509C11.449 18.2509 9.21909 19.6331 8.02062 21.693C9.67127 22.9779 11.7463 23.7431 14 23.7431C16.2541 23.7431 18.3294 22.9776 19.9803 21.6924ZM9.96406 12.2909C9.96406 10.0618 11.7711 8.25474 14.0002 8.25474C16.2294 8.25474 18.0364 10.0618 18.0364 12.2909C18.0364 14.52 16.2294 16.3271 14.0002 16.3271C11.7711 16.3271 9.96406 14.52 9.96406 12.2909ZM14.0002 9.88639C12.6722 9.88639 11.5957 10.9629 11.5957 12.2909C11.5957 13.6189 12.6722 14.6955 14.0002 14.6955C15.3282 14.6955 16.4048 13.6189 16.4048 12.2909C16.4048 10.9629 15.3282 9.88639 14.0002 9.88639Z" fill="#475569"/>
</g>
</svg>
